<mxfile host="app.diagrams.net" modified="2021-11-10T12:32:19.678Z" agent="5.0 (Windows NT 10.0; Win64; x64) AppleWebKit/537.36 (KHTML, like Gecko) Chrome/95.0.4638.69 Safari/537.36" etag="3uSltRxAeCSUc2_5D5is" version="15.7.1" type="github">
  <diagram id="yDBc-G_T3kcIbM374eeq" name="Page-1">
    <mxGraphModel dx="1662" dy="762" grid="1" gridSize="10" guides="1" tooltips="1" connect="1" arrows="1" fold="1" page="1" pageScale="1" pageWidth="827" pageHeight="1169" math="0" shadow="0">
      <root>
        <mxCell id="0" />
        <mxCell id="1" parent="0" />
        <mxCell id="UW92wbI46Kdcc-sQo47G-1" value="경상대학생" style="shape=umlActor;verticalLabelPosition=bottom;verticalAlign=top;html=1;outlineConnect=0;" parent="1" vertex="1">
          <mxGeometry x="50" y="197" width="30" height="60" as="geometry" />
        </mxCell>
        <mxCell id="UW92wbI46Kdcc-sQo47G-2" value="데이터베이스 서버&lt;br&gt;[파이어베이스]" style="shape=umlActor;verticalLabelPosition=bottom;verticalAlign=top;html=1;outlineConnect=0;" parent="1" vertex="1">
          <mxGeometry x="310" y="110" width="30" height="60" as="geometry" />
        </mxCell>
        <mxCell id="UW92wbI46Kdcc-sQo47G-3" value="푸시알림 서버&lt;br&gt;[원시그널]" style="shape=umlActor;verticalLabelPosition=bottom;verticalAlign=top;html=1;outlineConnect=0;" parent="1" vertex="1">
          <mxGeometry x="310" y="555" width="30" height="60" as="geometry" />
        </mxCell>
        <mxCell id="UW92wbI46Kdcc-sQo47G-4" value="학과 홈페이지" style="shape=umlActor;verticalLabelPosition=bottom;verticalAlign=top;html=1;outlineConnect=0;" parent="1" vertex="1">
          <mxGeometry x="609" y="234" width="30" height="60" as="geometry" />
        </mxCell>
        <mxCell id="UW92wbI46Kdcc-sQo47G-5" value="브라우저앱" style="shape=umlActor;verticalLabelPosition=bottom;verticalAlign=top;html=1;outlineConnect=0;" parent="1" vertex="1">
          <mxGeometry x="60" y="430" width="30" height="60" as="geometry" />
        </mxCell>
        <mxCell id="UW92wbI46Kdcc-sQo47G-6" value="" style="rounded=0;whiteSpace=wrap;html=1;" parent="1" vertex="1">
          <mxGeometry x="110" y="210" width="210" height="300" as="geometry" />
        </mxCell>
        <mxCell id="UW92wbI46Kdcc-sQo47G-8" value="기숙사 홈페이지" style="shape=umlActor;verticalLabelPosition=bottom;verticalAlign=top;html=1;outlineConnect=0;" parent="1" vertex="1">
          <mxGeometry x="609" y="330" width="30" height="60" as="geometry" />
        </mxCell>
        <mxCell id="UW92wbI46Kdcc-sQo47G-9" value="타이머" style="shape=umlActor;verticalLabelPosition=bottom;verticalAlign=top;html=1;outlineConnect=0;" parent="1" vertex="1">
          <mxGeometry x="609" y="424" width="30" height="60" as="geometry" />
        </mxCell>
        <mxCell id="UW92wbI46Kdcc-sQo47G-11" value="" style="rounded=0;whiteSpace=wrap;html=1;" parent="1" vertex="1">
          <mxGeometry x="320" y="210" width="210" height="300" as="geometry" />
        </mxCell>
        <mxCell id="UW92wbI46Kdcc-sQo47G-12" value="공지사항 크롤링" style="ellipse;whiteSpace=wrap;html=1;" parent="1" vertex="1">
          <mxGeometry x="354" y="280" width="120" height="80" as="geometry" />
        </mxCell>
        <mxCell id="UW92wbI46Kdcc-sQo47G-13" value="공지사항 접속" style="ellipse;whiteSpace=wrap;html=1;" parent="1" vertex="1">
          <mxGeometry x="180" y="280" width="120" height="80" as="geometry" />
        </mxCell>
        <mxCell id="UW92wbI46Kdcc-sQo47G-14" value="푸시알림 수신 설정" style="ellipse;whiteSpace=wrap;html=1;" parent="1" vertex="1">
          <mxGeometry x="180" y="380" width="120" height="80" as="geometry" />
        </mxCell>
        <mxCell id="UW92wbI46Kdcc-sQo47G-15" value="푸시알림" style="ellipse;whiteSpace=wrap;html=1;" parent="1" vertex="1">
          <mxGeometry x="340" y="420" width="120" height="80" as="geometry" />
        </mxCell>
        <mxCell id="UW92wbI46Kdcc-sQo47G-17" value="" style="endArrow=none;html=1;rounded=0;exitX=1;exitY=0.5;exitDx=0;exitDy=0;entryX=0;entryY=0.3333333333333333;entryDx=0;entryDy=0;entryPerimeter=0;" parent="1" source="UW92wbI46Kdcc-sQo47G-12" target="UW92wbI46Kdcc-sQo47G-4" edge="1">
          <mxGeometry width="50" height="50" relative="1" as="geometry">
            <mxPoint x="660" y="460" as="sourcePoint" />
            <mxPoint x="710" y="410" as="targetPoint" />
          </mxGeometry>
        </mxCell>
        <mxCell id="UW92wbI46Kdcc-sQo47G-18" value="" style="endArrow=none;html=1;rounded=0;exitX=1;exitY=0.5;exitDx=0;exitDy=0;entryX=0;entryY=0.3333333333333333;entryDx=0;entryDy=0;entryPerimeter=0;" parent="1" source="UW92wbI46Kdcc-sQo47G-12" target="UW92wbI46Kdcc-sQo47G-8" edge="1">
          <mxGeometry width="50" height="50" relative="1" as="geometry">
            <mxPoint x="484" y="330" as="sourcePoint" />
            <mxPoint x="619" y="264" as="targetPoint" />
          </mxGeometry>
        </mxCell>
        <mxCell id="UW92wbI46Kdcc-sQo47G-19" value="" style="endArrow=none;html=1;rounded=0;exitX=1;exitY=0.5;exitDx=0;exitDy=0;entryX=0;entryY=0.3333333333333333;entryDx=0;entryDy=0;entryPerimeter=0;" parent="1" source="UW92wbI46Kdcc-sQo47G-12" target="UW92wbI46Kdcc-sQo47G-9" edge="1">
          <mxGeometry width="50" height="50" relative="1" as="geometry">
            <mxPoint x="484" y="330" as="sourcePoint" />
            <mxPoint x="619" y="360" as="targetPoint" />
          </mxGeometry>
        </mxCell>
        <mxCell id="UW92wbI46Kdcc-sQo47G-27" value="Extends" style="endArrow=block;endSize=16;endFill=0;html=1;rounded=0;exitX=0.5;exitY=0;exitDx=0;exitDy=0;entryX=0.5;entryY=1;entryDx=0;entryDy=0;" parent="1" source="UW92wbI46Kdcc-sQo47G-15" target="UW92wbI46Kdcc-sQo47G-12" edge="1">
          <mxGeometry width="160" relative="1" as="geometry">
            <mxPoint x="610" y="430" as="sourcePoint" />
            <mxPoint x="770" y="430" as="targetPoint" />
          </mxGeometry>
        </mxCell>
        <mxCell id="UW92wbI46Kdcc-sQo47G-29" value="" style="endArrow=none;html=1;rounded=0;exitX=0.5;exitY=1;exitDx=0;exitDy=0;entryX=0.5;entryY=0;entryDx=0;entryDy=0;entryPerimeter=0;" parent="1" source="UW92wbI46Kdcc-sQo47G-14" target="UW92wbI46Kdcc-sQo47G-3" edge="1">
          <mxGeometry width="50" height="50" relative="1" as="geometry">
            <mxPoint x="484" y="330" as="sourcePoint" />
            <mxPoint x="619" y="360" as="targetPoint" />
          </mxGeometry>
        </mxCell>
        <mxCell id="UW92wbI46Kdcc-sQo47G-30" value="" style="endArrow=none;html=1;rounded=0;exitX=0.5;exitY=0;exitDx=0;exitDy=0;entryX=0;entryY=0.5;entryDx=0;entryDy=0;exitPerimeter=0;" parent="1" source="UW92wbI46Kdcc-sQo47G-3" target="UW92wbI46Kdcc-sQo47G-15" edge="1">
          <mxGeometry width="50" height="50" relative="1" as="geometry">
            <mxPoint x="484" y="330" as="sourcePoint" />
            <mxPoint x="619" y="454" as="targetPoint" />
          </mxGeometry>
        </mxCell>
        <mxCell id="UW92wbI46Kdcc-sQo47G-31" value="" style="endArrow=none;html=1;rounded=0;exitX=1;exitY=0.3333333333333333;exitDx=0;exitDy=0;entryX=0;entryY=0.5;entryDx=0;entryDy=0;exitPerimeter=0;" parent="1" source="UW92wbI46Kdcc-sQo47G-1" target="UW92wbI46Kdcc-sQo47G-13" edge="1">
          <mxGeometry width="50" height="50" relative="1" as="geometry">
            <mxPoint x="210" y="460" as="sourcePoint" />
            <mxPoint x="275" y="535" as="targetPoint" />
          </mxGeometry>
        </mxCell>
        <mxCell id="UW92wbI46Kdcc-sQo47G-32" value="" style="endArrow=none;html=1;rounded=0;exitX=1;exitY=0.3333333333333333;exitDx=0;exitDy=0;exitPerimeter=0;entryX=0;entryY=0.5;entryDx=0;entryDy=0;" parent="1" source="UW92wbI46Kdcc-sQo47G-5" target="UW92wbI46Kdcc-sQo47G-13" edge="1">
          <mxGeometry width="50" height="50" relative="1" as="geometry">
            <mxPoint x="660" y="460" as="sourcePoint" />
            <mxPoint x="710" y="410" as="targetPoint" />
          </mxGeometry>
        </mxCell>
        <mxCell id="UW92wbI46Kdcc-sQo47G-33" value="" style="endArrow=none;html=1;rounded=0;exitX=0;exitY=1;exitDx=0;exitDy=0;exitPerimeter=0;entryX=0.5;entryY=0;entryDx=0;entryDy=0;" parent="1" source="UW92wbI46Kdcc-sQo47G-2" target="UW92wbI46Kdcc-sQo47G-13" edge="1">
          <mxGeometry width="50" height="50" relative="1" as="geometry">
            <mxPoint x="660" y="460" as="sourcePoint" />
            <mxPoint x="710" y="410" as="targetPoint" />
          </mxGeometry>
        </mxCell>
        <mxCell id="UW92wbI46Kdcc-sQo47G-34" value="" style="endArrow=none;html=1;rounded=0;exitX=1;exitY=1;exitDx=0;exitDy=0;exitPerimeter=0;entryX=0.5;entryY=0;entryDx=0;entryDy=0;" parent="1" source="UW92wbI46Kdcc-sQo47G-2" target="UW92wbI46Kdcc-sQo47G-12" edge="1">
          <mxGeometry width="50" height="50" relative="1" as="geometry">
            <mxPoint x="660" y="460" as="sourcePoint" />
            <mxPoint x="710" y="410" as="targetPoint" />
          </mxGeometry>
        </mxCell>
        <mxCell id="UW92wbI46Kdcc-sQo47G-35" value="" style="endArrow=none;html=1;rounded=0;exitX=1;exitY=0.3333333333333333;exitDx=0;exitDy=0;exitPerimeter=0;entryX=0;entryY=0.5;entryDx=0;entryDy=0;" parent="1" source="UW92wbI46Kdcc-sQo47G-1" target="UW92wbI46Kdcc-sQo47G-14" edge="1">
          <mxGeometry width="50" height="50" relative="1" as="geometry">
            <mxPoint x="660" y="460" as="sourcePoint" />
            <mxPoint x="710" y="410" as="targetPoint" />
          </mxGeometry>
        </mxCell>
        <mxCell id="UW92wbI46Kdcc-sQo47G-36" value="경상대 알림 앱" style="rounded=1;whiteSpace=wrap;html=1;" parent="1" vertex="1">
          <mxGeometry x="170" y="200" width="90" height="30" as="geometry" />
        </mxCell>
        <mxCell id="UW92wbI46Kdcc-sQo47G-38" value="경상대 알림 서버" style="rounded=1;whiteSpace=wrap;html=1;" parent="1" vertex="1">
          <mxGeometry x="380" y="197" width="110" height="30" as="geometry" />
        </mxCell>
      </root>
    </mxGraphModel>
  </diagram>
</mxfile>
